# xmcd
#
# Track frame offsets: 
#        150
#        23828
#        50334
#        75812
#        102255
#        122660
#        141793
#        163797
#        199593
#        222177
#        242746
#        274132
#        297216
#
# Disc length: 4722 seconds
#
# Revision: 1
# Processed by: cddbd v1.5.2PL0 Copyright (c) Steve Scherf et al.
# Submitted via: ExactAudioCopy v1.0b3
#
DISCID=b012700d
DTITLE=Various Artist - 2004` Super Blues Ballads
DYEAR=2004
DGENRE=Blues
TTITLE0=Robert Cray - What You Need (Good Man)
TTITLE1=Omar and The Howlers - Pushing Fire
TTITLE2=Tinsley Ellis - Mystery To Me
TTITLE3=Maria Muldaur - Fever
TTITLE4=B.B. King - Cross My Heart
TTITLE5=Johnny Lang - Sugarman
TTITLE6=Debbie Davies - Hard Road
TTITLE7=John Mayall - Mists Of Time
TTITLE8=Lawton Dunning Project - Tonight
TTITLE9=Norah Jones - All Your Love
TTITLE10=Eric Bell Band - You Were The One
TTITLE11=Joe Bonamassa - No Slack
TTITLE12=Garry Moore - Ball and Chain
EXTD=
EXTT0=
EXTT1=
EXTT2=
EXTT3=
EXTT4=
EXTT5=
EXTT6=
EXTT7=
EXTT8=
EXTT9=
EXTT10=
EXTT11=
EXTT12=
PLAYORDER=
